<?xml version="1.0" encoding="utf-8"?>
<svg xmlns="http://www.w3.org/2000/svg" version="1.1" width="1600" height="900">

<line x1="0" y1="0" x2="1600" y2="0" stroke="lightgrey" />
<text x="5" y="-5" fill="lightgrey" >0</text>
<line x1="0" y1="100" x2="1600" y2="100" stroke="lightgrey" />
<text x="5" y="95" fill="lightgrey" >100</text>
<line x1="0" y1="200" x2="1600" y2="200" stroke="lightgrey" />
<text x="5" y="195" fill="lightgrey" >200</text>
<line x1="0" y1="300" x2="1600" y2="300" stroke="lightgrey" />
<text x="5" y="295" fill="lightgrey" >300</text>
<line x1="0" y1="400" x2="1600" y2="400" stroke="lightgrey" />
<text x="5" y="395" fill="lightgrey" >400</text>
<line x1="0" y1="500" x2="1600" y2="500" stroke="lightgrey" />
<text x="5" y="495" fill="lightgrey" >500</text>
<line x1="0" y1="600" x2="1600" y2="600" stroke="lightgrey" />
<text x="5" y="595" fill="lightgrey" >600</text>
<line x1="0" y1="700" x2="1600" y2="700" stroke="lightgrey" />
<text x="5" y="695" fill="lightgrey" >700</text>
<line x1="0" y1="800" x2="1600" y2="800" stroke="lightgrey" />
<text x="5" y="795" fill="lightgrey" >800</text>
<line x1="0" y1="900" x2="1600" y2="900" stroke="lightgrey" />
<text x="5" y="895" fill="lightgrey" >900</text>
<line x1="0" y1="0" x2="0" y2="900" stroke="lightgrey" />
<text x="5" y="15" fill="lightgrey" >0</text>
<line x1="100" y1="0" x2="100" y2="900" stroke="lightgrey" />
<text x="105" y="15" fill="lightgrey" >100</text>
<line x1="200" y1="0" x2="200" y2="900" stroke="lightgrey" />
<text x="205" y="15" fill="lightgrey" >200</text>
<line x1="300" y1="0" x2="300" y2="900" stroke="lightgrey" />
<text x="305" y="15" fill="lightgrey" >300</text>
<line x1="400" y1="0" x2="400" y2="900" stroke="lightgrey" />
<text x="405" y="15" fill="lightgrey" >400</text>
<line x1="500" y1="0" x2="500" y2="900" stroke="lightgrey" />
<text x="505" y="15" fill="lightgrey" >500</text>
<line x1="600" y1="0" x2="600" y2="900" stroke="lightgrey" />
<text x="605" y="15" fill="lightgrey" >600</text>
<line x1="700" y1="0" x2="700" y2="900" stroke="lightgrey" />
<text x="705" y="15" fill="lightgrey" >700</text>
<line x1="800" y1="0" x2="800" y2="900" stroke="lightgrey" />
<text x="805" y="15" fill="lightgrey" >800</text>
<line x1="900" y1="0" x2="900" y2="900" stroke="lightgrey" />
<text x="905" y="15" fill="lightgrey" >900</text>
<line x1="1000" y1="0" x2="1000" y2="900" stroke="lightgrey" />
<text x="1005" y="15" fill="lightgrey" >1000</text>
<line x1="1100" y1="0" x2="1100" y2="900" stroke="lightgrey" />
<text x="1105" y="15" fill="lightgrey" >1100</text>
<line x1="1200" y1="0" x2="1200" y2="900" stroke="lightgrey" />
<text x="1205" y="15" fill="lightgrey" >1200</text>
<line x1="1300" y1="0" x2="1300" y2="900" stroke="lightgrey" />
<text x="1305" y="15" fill="lightgrey" >1300</text>
<line x1="1400" y1="0" x2="1400" y2="900" stroke="lightgrey" />
<text x="1405" y="15" fill="lightgrey" >1400</text>
<line x1="1500" y1="0" x2="1500" y2="900" stroke="lightgrey" />
<text x="1505" y="15" fill="lightgrey" >1500</text>
<line x1="1600" y1="0" x2="1600" y2="900" stroke="lightgrey" />
<text x="1605" y="15" fill="lightgrey" >1600</text>
<line x1="625" y1="255" x2="725" y2="255" stroke="black" />
<text x="675" y="255" fill="red" >1</text>
<text x="685" y="255" fill="red" > ;</text>
<text x="695" y="255" fill="red" >8</text>
<circle cx="875" cy="340" r="10" fill="white" />
<circle cx="875" cy="340" r="10" fill="none" stroke="black" stroke-width="2" />
<text x="870" y="345" fill="black" >9</text>
<circle cx="775" cy="340" r="10" fill="white" />
<circle cx="775" cy="340" r="10" fill="none" stroke="black" stroke-width="2" />
<text x="770" y="345" fill="black" >8</text>
<circle cx="675" cy="340" r="10" fill="white" />
<circle cx="675" cy="340" r="10" fill="none" stroke="black" stroke-width="2" />
<text x="670" y="345" fill="black" >7</text>
<circle cx="575" cy="340" r="10" fill="white" />
<circle cx="575" cy="340" r="10" fill="none" stroke="black" stroke-width="2" />
<text x="570" y="345" fill="black" >6</text>
<circle cx="825" cy="255" r="10" fill="white" />
<circle cx="825" cy="255" r="10" fill="none" stroke="black" stroke-width="2" />
<text x="820" y="260" fill="black" >5</text>
<circle cx="725" cy="255" r="10" fill="white" />
<circle cx="725" cy="255" r="10" fill="none" stroke="black" stroke-width="2" />
<text x="720" y="260" fill="black" >4</text>
<circle cx="725" cy="85" r="10" fill="white" />
<circle cx="725" cy="85" r="10" fill="none" stroke="black" stroke-width="2" />
<text x="720" y="90" fill="black" >0</text>
<circle cx="675" cy="170" r="10" fill="white" />
<circle cx="675" cy="170" r="10" fill="none" stroke="black" stroke-width="2" />
<text x="670" y="175" fill="black" >1</text>
<circle cx="775" cy="170" r="10" fill="white" />
<circle cx="775" cy="170" r="10" fill="none" stroke="black" stroke-width="2" />
<text x="770" y="175" fill="black" >2</text>
<circle cx="625" cy="255" r="10" fill="white" />
<circle cx="625" cy="255" r="10" fill="none" stroke="black" stroke-width="2" />
<text x="620" y="260" fill="black" >3</text>
<line x1="775" y1="170" x2="725" y2="255" stroke="black" />
<text x="750" y="212.5" fill="red" >2</text>
<text x="760" y="212.5" fill="red" > ;</text>
<text x="770" y="212.5" fill="red" >1</text>
<circle cx="875" cy="340" r="10" fill="white" />
<circle cx="875" cy="340" r="10" fill="none" stroke="black" stroke-width="2" />
<text x="870" y="345" fill="black" >9</text>
<circle cx="775" cy="340" r="10" fill="white" />
<circle cx="775" cy="340" r="10" fill="none" stroke="black" stroke-width="2" />
<text x="770" y="345" fill="black" >8</text>
<circle cx="675" cy="340" r="10" fill="white" />
<circle cx="675" cy="340" r="10" fill="none" stroke="black" stroke-width="2" />
<text x="670" y="345" fill="black" >7</text>
<circle cx="575" cy="340" r="10" fill="white" />
<circle cx="575" cy="340" r="10" fill="none" stroke="black" stroke-width="2" />
<text x="570" y="345" fill="black" >6</text>
<circle cx="825" cy="255" r="10" fill="white" />
<circle cx="825" cy="255" r="10" fill="none" stroke="black" stroke-width="2" />
<text x="820" y="260" fill="black" >5</text>
<circle cx="725" cy="255" r="10" fill="white" />
<circle cx="725" cy="255" r="10" fill="none" stroke="black" stroke-width="2" />
<text x="720" y="260" fill="black" >4</text>
<circle cx="725" cy="85" r="10" fill="white" />
<circle cx="725" cy="85" r="10" fill="none" stroke="black" stroke-width="2" />
<text x="720" y="90" fill="black" >0</text>
<circle cx="675" cy="170" r="10" fill="white" />
<circle cx="675" cy="170" r="10" fill="none" stroke="black" stroke-width="2" />
<text x="670" y="175" fill="black" >1</text>
<circle cx="775" cy="170" r="10" fill="white" />
<circle cx="775" cy="170" r="10" fill="none" stroke="black" stroke-width="2" />
<text x="770" y="175" fill="black" >2</text>
<circle cx="625" cy="255" r="10" fill="white" />
<circle cx="625" cy="255" r="10" fill="none" stroke="black" stroke-width="2" />
<text x="620" y="260" fill="black" >3</text>
<line x1="625" y1="255" x2="575" y2="340" stroke="black" />
<text x="600" y="297.5" fill="red" >3</text>
<text x="610" y="297.5" fill="red" > ;</text>
<text x="620" y="297.5" fill="red" >6</text>
<circle cx="875" cy="340" r="10" fill="white" />
<circle cx="875" cy="340" r="10" fill="none" stroke="black" stroke-width="2" />
<text x="870" y="345" fill="black" >9</text>
<circle cx="775" cy="340" r="10" fill="white" />
<circle cx="775" cy="340" r="10" fill="none" stroke="black" stroke-width="2" />
<text x="770" y="345" fill="black" >8</text>
<circle cx="675" cy="340" r="10" fill="white" />
<circle cx="675" cy="340" r="10" fill="none" stroke="black" stroke-width="2" />
<text x="670" y="345" fill="black" >7</text>
<circle cx="575" cy="340" r="10" fill="white" />
<circle cx="575" cy="340" r="10" fill="none" stroke="black" stroke-width="2" />
<text x="570" y="345" fill="black" >6</text>
<circle cx="825" cy="255" r="10" fill="white" />
<circle cx="825" cy="255" r="10" fill="none" stroke="black" stroke-width="2" />
<text x="820" y="260" fill="black" >5</text>
<circle cx="725" cy="255" r="10" fill="white" />
<circle cx="725" cy="255" r="10" fill="none" stroke="black" stroke-width="2" />
<text x="720" y="260" fill="black" >4</text>
<circle cx="725" cy="85" r="10" fill="white" />
<circle cx="725" cy="85" r="10" fill="none" stroke="black" stroke-width="2" />
<text x="720" y="90" fill="black" >0</text>
<circle cx="675" cy="170" r="10" fill="white" />
<circle cx="675" cy="170" r="10" fill="none" stroke="black" stroke-width="2" />
<text x="670" y="175" fill="black" >1</text>
<circle cx="775" cy="170" r="10" fill="white" />
<circle cx="775" cy="170" r="10" fill="none" stroke="black" stroke-width="2" />
<text x="770" y="175" fill="black" >2</text>
<circle cx="625" cy="255" r="10" fill="white" />
<circle cx="625" cy="255" r="10" fill="none" stroke="black" stroke-width="2" />
<text x="620" y="260" fill="black" >3</text>
<line x1="725" y1="255" x2="675" y2="340" stroke="black" />
<text x="700" y="297.5" fill="red" >3</text>
<text x="710" y="297.5" fill="red" > ;</text>
<text x="720" y="297.5" fill="red" >6</text>
<circle cx="875" cy="340" r="10" fill="white" />
<circle cx="875" cy="340" r="10" fill="none" stroke="black" stroke-width="2" />
<text x="870" y="345" fill="black" >9</text>
<circle cx="775" cy="340" r="10" fill="white" />
<circle cx="775" cy="340" r="10" fill="none" stroke="black" stroke-width="2" />
<text x="770" y="345" fill="black" >8</text>
<circle cx="675" cy="340" r="10" fill="white" />
<circle cx="675" cy="340" r="10" fill="none" stroke="black" stroke-width="2" />
<text x="670" y="345" fill="black" >7</text>
<circle cx="575" cy="340" r="10" fill="white" />
<circle cx="575" cy="340" r="10" fill="none" stroke="black" stroke-width="2" />
<text x="570" y="345" fill="black" >6</text>
<circle cx="825" cy="255" r="10" fill="white" />
<circle cx="825" cy="255" r="10" fill="none" stroke="black" stroke-width="2" />
<text x="820" y="260" fill="black" >5</text>
<circle cx="725" cy="255" r="10" fill="white" />
<circle cx="725" cy="255" r="10" fill="none" stroke="black" stroke-width="2" />
<text x="720" y="260" fill="black" >4</text>
<circle cx="725" cy="85" r="10" fill="white" />
<circle cx="725" cy="85" r="10" fill="none" stroke="black" stroke-width="2" />
<text x="720" y="90" fill="black" >0</text>
<circle cx="675" cy="170" r="10" fill="white" />
<circle cx="675" cy="170" r="10" fill="none" stroke="black" stroke-width="2" />
<text x="670" y="175" fill="black" >1</text>
<circle cx="775" cy="170" r="10" fill="white" />
<circle cx="775" cy="170" r="10" fill="none" stroke="black" stroke-width="2" />
<text x="770" y="175" fill="black" >2</text>
<circle cx="625" cy="255" r="10" fill="white" />
<circle cx="625" cy="255" r="10" fill="none" stroke="black" stroke-width="2" />
<text x="620" y="260" fill="black" >3</text>
<line x1="775" y1="170" x2="825" y2="255" stroke="black" />
<text x="800" y="212.5" fill="red" >4</text>
<text x="810" y="212.5" fill="red" > ;</text>
<text x="820" y="212.5" fill="red" >5</text>
<circle cx="875" cy="340" r="10" fill="white" />
<circle cx="875" cy="340" r="10" fill="none" stroke="black" stroke-width="2" />
<text x="870" y="345" fill="black" >9</text>
<circle cx="775" cy="340" r="10" fill="white" />
<circle cx="775" cy="340" r="10" fill="none" stroke="black" stroke-width="2" />
<text x="770" y="345" fill="black" >8</text>
<circle cx="675" cy="340" r="10" fill="white" />
<circle cx="675" cy="340" r="10" fill="none" stroke="black" stroke-width="2" />
<text x="670" y="345" fill="black" >7</text>
<circle cx="575" cy="340" r="10" fill="white" />
<circle cx="575" cy="340" r="10" fill="none" stroke="black" stroke-width="2" />
<text x="570" y="345" fill="black" >6</text>
<circle cx="825" cy="255" r="10" fill="white" />
<circle cx="825" cy="255" r="10" fill="none" stroke="black" stroke-width="2" />
<text x="820" y="260" fill="black" >5</text>
<circle cx="725" cy="255" r="10" fill="white" />
<circle cx="725" cy="255" r="10" fill="none" stroke="black" stroke-width="2" />
<text x="720" y="260" fill="black" >4</text>
<circle cx="725" cy="85" r="10" fill="white" />
<circle cx="725" cy="85" r="10" fill="none" stroke="black" stroke-width="2" />
<text x="720" y="90" fill="black" >0</text>
<circle cx="675" cy="170" r="10" fill="white" />
<circle cx="675" cy="170" r="10" fill="none" stroke="black" stroke-width="2" />
<text x="670" y="175" fill="black" >1</text>
<circle cx="775" cy="170" r="10" fill="white" />
<circle cx="775" cy="170" r="10" fill="none" stroke="black" stroke-width="2" />
<text x="770" y="175" fill="black" >2</text>
<circle cx="625" cy="255" r="10" fill="white" />
<circle cx="625" cy="255" r="10" fill="none" stroke="black" stroke-width="2" />
<text x="620" y="260" fill="black" >3</text>
<line x1="675" y1="170" x2="625" y2="255" stroke="black" />
<text x="650" y="212.5" fill="red" >5</text>
<text x="660" y="212.5" fill="red" > ;</text>
<text x="670" y="212.5" fill="red" >7</text>
<circle cx="875" cy="340" r="10" fill="white" />
<circle cx="875" cy="340" r="10" fill="none" stroke="black" stroke-width="2" />
<text x="870" y="345" fill="black" >9</text>
<circle cx="775" cy="340" r="10" fill="white" />
<circle cx="775" cy="340" r="10" fill="none" stroke="black" stroke-width="2" />
<text x="770" y="345" fill="black" >8</text>
<circle cx="675" cy="340" r="10" fill="white" />
<circle cx="675" cy="340" r="10" fill="none" stroke="black" stroke-width="2" />
<text x="670" y="345" fill="black" >7</text>
<circle cx="575" cy="340" r="10" fill="white" />
<circle cx="575" cy="340" r="10" fill="none" stroke="black" stroke-width="2" />
<text x="570" y="345" fill="black" >6</text>
<circle cx="825" cy="255" r="10" fill="white" />
<circle cx="825" cy="255" r="10" fill="none" stroke="black" stroke-width="2" />
<text x="820" y="260" fill="black" >5</text>
<circle cx="725" cy="255" r="10" fill="white" />
<circle cx="725" cy="255" r="10" fill="none" stroke="black" stroke-width="2" />
<text x="720" y="260" fill="black" >4</text>
<circle cx="725" cy="85" r="10" fill="white" />
<circle cx="725" cy="85" r="10" fill="none" stroke="black" stroke-width="2" />
<text x="720" y="90" fill="black" >0</text>
<circle cx="675" cy="170" r="10" fill="white" />
<circle cx="675" cy="170" r="10" fill="none" stroke="black" stroke-width="2" />
<text x="670" y="175" fill="black" >1</text>
<circle cx="775" cy="170" r="10" fill="white" />
<circle cx="775" cy="170" r="10" fill="none" stroke="black" stroke-width="2" />
<text x="770" y="175" fill="black" >2</text>
<circle cx="625" cy="255" r="10" fill="white" />
<circle cx="625" cy="255" r="10" fill="none" stroke="black" stroke-width="2" />
<text x="620" y="260" fill="black" >3</text>
<line x1="725" y1="85" x2="675" y2="170" stroke="black" />
<text x="700" y="127.5" fill="red" >6</text>
<text x="710" y="127.5" fill="red" > ;</text>
<text x="720" y="127.5" fill="red" >4</text>
<circle cx="875" cy="340" r="10" fill="white" />
<circle cx="875" cy="340" r="10" fill="none" stroke="black" stroke-width="2" />
<text x="870" y="345" fill="black" >9</text>
<circle cx="775" cy="340" r="10" fill="white" />
<circle cx="775" cy="340" r="10" fill="none" stroke="black" stroke-width="2" />
<text x="770" y="345" fill="black" >8</text>
<circle cx="675" cy="340" r="10" fill="white" />
<circle cx="675" cy="340" r="10" fill="none" stroke="black" stroke-width="2" />
<text x="670" y="345" fill="black" >7</text>
<circle cx="575" cy="340" r="10" fill="white" />
<circle cx="575" cy="340" r="10" fill="none" stroke="black" stroke-width="2" />
<text x="570" y="345" fill="black" >6</text>
<circle cx="825" cy="255" r="10" fill="white" />
<circle cx="825" cy="255" r="10" fill="none" stroke="black" stroke-width="2" />
<text x="820" y="260" fill="black" >5</text>
<circle cx="725" cy="255" r="10" fill="white" />
<circle cx="725" cy="255" r="10" fill="none" stroke="black" stroke-width="2" />
<text x="720" y="260" fill="black" >4</text>
<circle cx="725" cy="85" r="10" fill="white" />
<circle cx="725" cy="85" r="10" fill="none" stroke="black" stroke-width="2" />
<text x="720" y="90" fill="black" >0</text>
<circle cx="675" cy="170" r="10" fill="white" />
<circle cx="675" cy="170" r="10" fill="none" stroke="black" stroke-width="2" />
<text x="670" y="175" fill="black" >1</text>
<circle cx="775" cy="170" r="10" fill="white" />
<circle cx="775" cy="170" r="10" fill="none" stroke="black" stroke-width="2" />
<text x="770" y="175" fill="black" >2</text>
<circle cx="625" cy="255" r="10" fill="white" />
<circle cx="625" cy="255" r="10" fill="none" stroke="black" stroke-width="2" />
<text x="620" y="260" fill="black" >3</text>
<line x1="825" y1="255" x2="775" y2="340" stroke="black" />
<text x="800" y="297.5" fill="red" >7</text>
<text x="810" y="297.5" fill="red" > ;</text>
<text x="820" y="297.5" fill="red" >1</text>
<circle cx="875" cy="340" r="10" fill="white" />
<circle cx="875" cy="340" r="10" fill="none" stroke="black" stroke-width="2" />
<text x="870" y="345" fill="black" >9</text>
<circle cx="775" cy="340" r="10" fill="white" />
<circle cx="775" cy="340" r="10" fill="none" stroke="black" stroke-width="2" />
<text x="770" y="345" fill="black" >8</text>
<circle cx="675" cy="340" r="10" fill="white" />
<circle cx="675" cy="340" r="10" fill="none" stroke="black" stroke-width="2" />
<text x="670" y="345" fill="black" >7</text>
<circle cx="575" cy="340" r="10" fill="white" />
<circle cx="575" cy="340" r="10" fill="none" stroke="black" stroke-width="2" />
<text x="570" y="345" fill="black" >6</text>
<circle cx="825" cy="255" r="10" fill="white" />
<circle cx="825" cy="255" r="10" fill="none" stroke="black" stroke-width="2" />
<text x="820" y="260" fill="black" >5</text>
<circle cx="725" cy="255" r="10" fill="white" />
<circle cx="725" cy="255" r="10" fill="none" stroke="black" stroke-width="2" />
<text x="720" y="260" fill="black" >4</text>
<circle cx="725" cy="85" r="10" fill="white" />
<circle cx="725" cy="85" r="10" fill="none" stroke="black" stroke-width="2" />
<text x="720" y="90" fill="black" >0</text>
<circle cx="675" cy="170" r="10" fill="white" />
<circle cx="675" cy="170" r="10" fill="none" stroke="black" stroke-width="2" />
<text x="670" y="175" fill="black" >1</text>
<circle cx="775" cy="170" r="10" fill="white" />
<circle cx="775" cy="170" r="10" fill="none" stroke="black" stroke-width="2" />
<text x="770" y="175" fill="black" >2</text>
<circle cx="625" cy="255" r="10" fill="white" />
<circle cx="625" cy="255" r="10" fill="none" stroke="black" stroke-width="2" />
<text x="620" y="260" fill="black" >3</text>
<line x1="825" y1="255" x2="875" y2="340" stroke="black" />
<text x="850" y="297.5" fill="red" >8</text>
<text x="860" y="297.5" fill="red" > ;</text>
<text x="870" y="297.5" fill="red" >3</text>
<circle cx="875" cy="340" r="10" fill="white" />
<circle cx="875" cy="340" r="10" fill="none" stroke="black" stroke-width="2" />
<text x="870" y="345" fill="black" >9</text>
<circle cx="775" cy="340" r="10" fill="white" />
<circle cx="775" cy="340" r="10" fill="none" stroke="black" stroke-width="2" />
<text x="770" y="345" fill="black" >8</text>
<circle cx="675" cy="340" r="10" fill="white" />
<circle cx="675" cy="340" r="10" fill="none" stroke="black" stroke-width="2" />
<text x="670" y="345" fill="black" >7</text>
<circle cx="575" cy="340" r="10" fill="white" />
<circle cx="575" cy="340" r="10" fill="none" stroke="black" stroke-width="2" />
<text x="570" y="345" fill="black" >6</text>
<circle cx="825" cy="255" r="10" fill="white" />
<circle cx="825" cy="255" r="10" fill="none" stroke="black" stroke-width="2" />
<text x="820" y="260" fill="black" >5</text>
<circle cx="725" cy="255" r="10" fill="white" />
<circle cx="725" cy="255" r="10" fill="none" stroke="black" stroke-width="2" />
<text x="720" y="260" fill="black" >4</text>
<circle cx="725" cy="85" r="10" fill="white" />
<circle cx="725" cy="85" r="10" fill="none" stroke="black" stroke-width="2" />
<text x="720" y="90" fill="black" >0</text>
<circle cx="675" cy="170" r="10" fill="white" />
<circle cx="675" cy="170" r="10" fill="none" stroke="black" stroke-width="2" />
<text x="670" y="175" fill="black" >1</text>
<circle cx="775" cy="170" r="10" fill="white" />
<circle cx="775" cy="170" r="10" fill="none" stroke="black" stroke-width="2" />
<text x="770" y="175" fill="black" >2</text>
<circle cx="625" cy="255" r="10" fill="white" />
<circle cx="625" cy="255" r="10" fill="none" stroke="black" stroke-width="2" />
<text x="620" y="260" fill="black" >3</text>
<text x="590" y="25" fill="black" >KRUSKAL POIDS 1 : </text>
<text x="595" y="45" fill="black" >Cout total : </text>
<text x="670" y="45" fill="black" >(</text>
<text x="675" y="45" fill="black" >39</text>
<text x="690" y="45" fill="black" >;</text>
<text x="695" y="45" fill="black" >41</text>
<text x="715" y="45" fill="black" >)</text>
<line x1="225" y1="85" x2="175" y2="170" stroke="black" />
<text x="200" y="127.5" fill="red" >0</text>
<line x1="225" y1="85" x2="275" y2="170" stroke="black" />
<text x="250" y="127.5" fill="red" >1</text>
<line x1="175" y1="170" x2="275" y2="170" stroke="black" />
<text x="225" y="170" fill="red" >2</text>
<line x1="175" y1="170" x2="125" y2="255" stroke="black" />
<text x="150" y="212.5" fill="red" >3</text>
<line x1="175" y1="170" x2="225" y2="255" stroke="black" />
<text x="200" y="212.5" fill="red" >4</text>
<line x1="275" y1="170" x2="225" y2="255" stroke="black" />
<text x="250" y="212.5" fill="red" >5</text>
<line x1="275" y1="170" x2="325" y2="255" stroke="black" />
<text x="300" y="212.5" fill="red" >6</text>
<line x1="125" y1="255" x2="225" y2="255" stroke="black" />
<text x="175" y="255" fill="red" >7</text>
<line x1="225" y1="255" x2="325" y2="255" stroke="black" />
<text x="275" y="255" fill="red" >8</text>
<line x1="125" y1="255" x2="75" y2="340" stroke="black" />
<text x="100" y="297.5" fill="red" >9</text>
<line x1="125" y1="255" x2="175" y2="340" stroke="black" />
<text x="150" y="297.5" fill="red" >10</text>
<line x1="225" y1="255" x2="175" y2="340" stroke="black" />
<text x="200" y="297.5" fill="red" >11</text>
<line x1="225" y1="255" x2="275" y2="340" stroke="black" />
<text x="250" y="297.5" fill="red" >12</text>
<line x1="325" y1="255" x2="275" y2="340" stroke="black" />
<text x="300" y="297.5" fill="red" >13</text>
<line x1="325" y1="255" x2="375" y2="340" stroke="black" />
<text x="350" y="297.5" fill="red" >14</text>
<line x1="75" y1="340" x2="175" y2="340" stroke="black" />
<text x="125" y="340" fill="red" >15</text>
<line x1="175" y1="340" x2="275" y2="340" stroke="black" />
<text x="225" y="340" fill="red" >16</text>
<line x1="275" y1="340" x2="375" y2="340" stroke="black" />
<text x="325" y="340" fill="red" >17</text>
<circle cx="375" cy="340" r="10" fill="white" />
<circle cx="375" cy="340" r="10" fill="none" stroke="black" stroke-width="2" />
<text x="372" y="345" fill="black" >9</text>
<circle cx="275" cy="340" r="10" fill="white" />
<circle cx="275" cy="340" r="10" fill="none" stroke="black" stroke-width="2" />
<text x="272" y="345" fill="black" >8</text>
<circle cx="175" cy="340" r="10" fill="white" />
<circle cx="175" cy="340" r="10" fill="none" stroke="black" stroke-width="2" />
<text x="172" y="345" fill="black" >7</text>
<circle cx="75" cy="340" r="10" fill="white" />
<circle cx="75" cy="340" r="10" fill="none" stroke="black" stroke-width="2" />
<text x="72" y="345" fill="black" >6</text>
<circle cx="325" cy="255" r="10" fill="white" />
<circle cx="325" cy="255" r="10" fill="none" stroke="black" stroke-width="2" />
<text x="322" y="260" fill="black" >5</text>
<circle cx="225" cy="255" r="10" fill="white" />
<circle cx="225" cy="255" r="10" fill="none" stroke="black" stroke-width="2" />
<text x="222" y="260" fill="black" >4</text>
<circle cx="225" cy="85" r="10" fill="white" />
<circle cx="225" cy="85" r="10" fill="none" stroke="black" stroke-width="2" />
<text x="222" y="90" fill="black" >0</text>
<circle cx="175" cy="170" r="10" fill="white" />
<circle cx="175" cy="170" r="10" fill="none" stroke="black" stroke-width="2" />
<text x="172" y="175" fill="black" >1</text>
<circle cx="275" cy="170" r="10" fill="white" />
<circle cx="275" cy="170" r="10" fill="none" stroke="black" stroke-width="2" />
<text x="272" y="175" fill="black" >2</text>
<circle cx="125" cy="255" r="10" fill="white" />
<circle cx="125" cy="255" r="10" fill="none" stroke="black" stroke-width="2" />
<text x="122" y="260" fill="black" >3</text>


</svg>
