<?xml version="1.0" encoding="utf-8"?>
<svg xmlns="http://www.w3.org/2000/svg" version="1.1" width="1600" height="900">

<line x1="0" y1="0" x2="1600" y2="0" stroke="lightgrey" />
<text x="5" y="-5" fill="lightgrey" >0</text>
<line x1="0" y1="100" x2="1600" y2="100" stroke="lightgrey" />
<text x="5" y="95" fill="lightgrey" >100</text>
<line x1="0" y1="200" x2="1600" y2="200" stroke="lightgrey" />
<text x="5" y="195" fill="lightgrey" >200</text>
<line x1="0" y1="300" x2="1600" y2="300" stroke="lightgrey" />
<text x="5" y="295" fill="lightgrey" >300</text>
<line x1="0" y1="400" x2="1600" y2="400" stroke="lightgrey" />
<text x="5" y="395" fill="lightgrey" >400</text>
<line x1="0" y1="500" x2="1600" y2="500" stroke="lightgrey" />
<text x="5" y="495" fill="lightgrey" >500</text>
<line x1="0" y1="600" x2="1600" y2="600" stroke="lightgrey" />
<text x="5" y="595" fill="lightgrey" >600</text>
<line x1="0" y1="700" x2="1600" y2="700" stroke="lightgrey" />
<text x="5" y="695" fill="lightgrey" >700</text>
<line x1="0" y1="800" x2="1600" y2="800" stroke="lightgrey" />
<text x="5" y="795" fill="lightgrey" >800</text>
<line x1="0" y1="900" x2="1600" y2="900" stroke="lightgrey" />
<text x="5" y="895" fill="lightgrey" >900</text>
<line x1="0" y1="0" x2="0" y2="900" stroke="lightgrey" />
<text x="5" y="15" fill="lightgrey" >0</text>
<line x1="100" y1="0" x2="100" y2="900" stroke="lightgrey" />
<text x="105" y="15" fill="lightgrey" >100</text>
<line x1="200" y1="0" x2="200" y2="900" stroke="lightgrey" />
<text x="205" y="15" fill="lightgrey" >200</text>
<line x1="300" y1="0" x2="300" y2="900" stroke="lightgrey" />
<text x="305" y="15" fill="lightgrey" >300</text>
<line x1="400" y1="0" x2="400" y2="900" stroke="lightgrey" />
<text x="405" y="15" fill="lightgrey" >400</text>
<line x1="500" y1="0" x2="500" y2="900" stroke="lightgrey" />
<text x="505" y="15" fill="lightgrey" >500</text>
<line x1="600" y1="0" x2="600" y2="900" stroke="lightgrey" />
<text x="605" y="15" fill="lightgrey" >600</text>
<line x1="700" y1="0" x2="700" y2="900" stroke="lightgrey" />
<text x="705" y="15" fill="lightgrey" >700</text>
<line x1="800" y1="0" x2="800" y2="900" stroke="lightgrey" />
<text x="805" y="15" fill="lightgrey" >800</text>
<line x1="900" y1="0" x2="900" y2="900" stroke="lightgrey" />
<text x="905" y="15" fill="lightgrey" >900</text>
<line x1="1000" y1="0" x2="1000" y2="900" stroke="lightgrey" />
<text x="1005" y="15" fill="lightgrey" >1000</text>
<line x1="1100" y1="0" x2="1100" y2="900" stroke="lightgrey" />
<text x="1105" y="15" fill="lightgrey" >1100</text>
<line x1="1200" y1="0" x2="1200" y2="900" stroke="lightgrey" />
<text x="1205" y="15" fill="lightgrey" >1200</text>
<line x1="1300" y1="0" x2="1300" y2="900" stroke="lightgrey" />
<text x="1305" y="15" fill="lightgrey" >1300</text>
<line x1="1400" y1="0" x2="1400" y2="900" stroke="lightgrey" />
<text x="1405" y="15" fill="lightgrey" >1400</text>
<line x1="1500" y1="0" x2="1500" y2="900" stroke="lightgrey" />
<text x="1505" y="15" fill="lightgrey" >1500</text>
<line x1="1600" y1="0" x2="1600" y2="900" stroke="lightgrey" />
<text x="1605" y="15" fill="lightgrey" >1600</text>
<line x1="100" y1="100" x2="200" y2="100" stroke="black" />
<text x="150" y="100" fill="red" >0</text>
<line x1="100" y1="100" x2="100" y2="200" stroke="black" />
<text x="100" y="150" fill="red" >1</text>
<line x1="200" y1="100" x2="100" y2="200" stroke="black" />
<text x="150" y="150" fill="red" >2</text>
<line x1="200" y1="100" x2="200" y2="200" stroke="black" />
<text x="200" y="150" fill="red" >3</text>
<line x1="100" y1="200" x2="200" y2="200" stroke="black" />
<text x="150" y="200" fill="red" >4</text>
<circle cx="200" cy="200" r="10" fill="white" />
<circle cx="200" cy="200" r="10" fill="none" stroke="black" stroke-width="2" />
<text x="197" y="205" fill="black" >3</text>
<circle cx="100" cy="200" r="10" fill="white" />
<circle cx="100" cy="200" r="10" fill="none" stroke="black" stroke-width="2" />
<text x="97" y="205" fill="black" >2</text>
<circle cx="200" cy="100" r="10" fill="white" />
<circle cx="200" cy="100" r="10" fill="none" stroke="black" stroke-width="2" />
<text x="197" y="105" fill="black" >1</text>
<circle cx="100" cy="100" r="10" fill="white" />
<circle cx="100" cy="100" r="10" fill="none" stroke="black" stroke-width="2" />
<text x="97" y="105" fill="black" >0</text>
<line x1="600" y1="450" x2="600" y2="610" stroke="black" />
<line x1="590" y1="600" x2="700" y2="600" stroke="black" />
<polygon points=" 690,605 690,595 700,600" style="fill:black" />
<polygon points=" 600,450 605,460 595,460" style="fill:black" />
<text x="590" y="613" fill="black" >0</text>
<text x="660" y="615" fill="black" >Cout1</text>
<text x="603" y="475" fill="black" >Cout2</text>
<circle cx="610" cy="625" r="5" fill="green" />
<text x="620" y="625" fill="black" >Solutions non dominees (frontiere de Pareto)</text>
<circle cx="610" cy="645" r="3" fill="red" />
<text x="620" y="645" fill="black" >Solutions dominees</text>
<text x="610" y="510" fill="black" >1</text>
<text x="730" y="130" fill="black" >1</text>
<text x="745" y="130" fill="black" > :(</text>
<text x="760" y="130" fill="black" >18</text>
<text x="776" y="130" fill="black" >,</text>
<text x="780" y="130" fill="black" >14</text>
<text x="795" y="130" fill="black" >)</text>
<line x1="770" y1="145" x2="770" y2="165" stroke="black" />
<line x1="750" y1="145" x2="750" y2="165" stroke="black" />
<line x1="750" y1="145" x2="770" y2="145" stroke="black" />
<circle cx="770" cy="165" r="2" fill="black" />
<circle cx="750" cy="165" r="2" fill="black" />
<circle cx="770" cy="145" r="2" fill="black" />
<circle cx="750" cy="145" r="2" fill="black" />
<circle cx="620" cy="510" r="4" fill="green" />
<circle cx="630" cy="500" r="2" fill="red" />
<text x="620" y="560" fill="black" >2</text>
<text x="730" y="230" fill="black" >2</text>
<text x="745" y="230" fill="black" > :(</text>
<text x="760" y="230" fill="black" >13</text>
<text x="776" y="230" fill="black" >,</text>
<text x="780" y="230" fill="black" >15</text>
<text x="795" y="230" fill="black" >)</text>
<line x1="770" y1="245" x2="770" y2="265" stroke="black" />
<line x1="770" y1="245" x2="750" y2="265" stroke="black" />
<line x1="750" y1="245" x2="750" y2="265" stroke="black" />
<circle cx="770" cy="265" r="2" fill="black" />
<circle cx="750" cy="265" r="2" fill="black" />
<circle cx="770" cy="245" r="2" fill="black" />
<circle cx="750" cy="245" r="2" fill="black" />
<circle cx="630" cy="560" r="4" fill="green" />
<circle cx="670" cy="530" r="2" fill="red" />
<circle cx="680" cy="520" r="2" fill="red" />
<text x="670" y="580" fill="black" >3</text>
<text x="730" y="330" fill="black" >3</text>
<text x="745" y="330" fill="black" > :(</text>
<text x="760" y="330" fill="black" >11</text>
<text x="776" y="330" fill="black" >,</text>
<text x="780" y="330" fill="black" >20</text>
<text x="795" y="330" fill="black" >)</text>
<line x1="750" y1="365" x2="770" y2="365" stroke="black" />
<line x1="770" y1="345" x2="750" y2="365" stroke="black" />
<line x1="750" y1="345" x2="750" y2="365" stroke="black" />
<circle cx="770" cy="365" r="2" fill="black" />
<circle cx="750" cy="365" r="2" fill="black" />
<circle cx="770" cy="345" r="2" fill="black" />
<circle cx="750" cy="345" r="2" fill="black" />
<circle cx="680" cy="580" r="4" fill="green" />
<circle cx="660" cy="470" r="2" fill="red" />
<circle cx="660" cy="530" r="2" fill="red" />


</svg>
